Coordinates
version=1
nRows=8
nColumns=34
inDegrees=yes

Units are S.I. units (second, meters, Newtons, ...)
If the header above contains a line with 'inDegrees', this indicates whether rotational values are in degrees (yes) or radians (no).

endheader
time	pelvis_tilt	pelvis_list	pelvis_rotation	pelvis_tx	pelvis_ty	pelvis_tz	hip_flexion_r	hip_adduction_r	hip_rotation_r	knee_angle_r	ankle_angle_r	subtalar_angle_r	mtp_angle_r	hip_flexion_l	hip_adduction_l	hip_rotation_l	knee_angle_l	ankle_angle_l	subtalar_angle_l	mtp_angle_l	lumbar_extension	lumbar_bending	lumbar_rotation	arm_flex_r	arm_add_r	arm_rot_r	elbow_flex_r	pro_sup_r	arm_flex_l	arm_add_l	arm_rot_l	elbow_flex_l	pro_sup_l
      0.00000000	     -2.24060554	     -0.04425994	     -2.14543769	      1.81246732	      0.95802459	     -0.09947330	     -1.08701036	     -1.61054720	     -3.13717976	      2.36690928	      2.09404778	    -17.75073633	      0.00000000	     -2.50846287	     -5.19399785	     -6.45746688	      1.77675362	      7.16996483	     -4.01025327	      0.00000000	     -5.40695469	      3.28748144	     -3.90425585	     11.59530106	     -9.44687717	     43.72858675	     77.76965755	     93.54071458	     -1.14613181	     -7.70462604	     27.56096112	     81.04526161	     90.20944296
      0.01666670	     -3.95025145	      0.13464814	     -2.12405143	      1.81424172	      0.95738341	     -0.10031140	      1.24997670	     -1.57645815	     -2.22718119	      2.98679819	      5.68797456	    -15.92668004	      0.00000000	      0.31980957	     -4.72372989	     -6.27927665	      2.26522503	      8.00974807	     -2.92293834	      0.00000000	     -2.83896684	      3.41939896	     -3.56043770	      9.91281406	     -9.41457093	     40.53047493	     77.26290167	     92.83530496	     -1.73676710	     -8.21766578	     28.06012851	     81.79686369	     89.97157930
      0.03333330	     -3.91306434	      0.78887938	     -2.30926734	      1.81347770	      0.95806594	     -0.09971372	      0.96251030	     -2.34660697	     -2.61323110	      2.26924624	      5.89831571	    -15.45478516	      0.00000000	      0.30774986	     -4.19180681	     -6.85655168	      2.04129851	      8.12187890	     -2.36955452	      0.00000000	     -2.70515203	      2.51722214	     -2.21078593	      9.18059830	     -9.10799996	     38.47437250	     76.75384344	     92.31211744	     -0.21723103	     -8.78223679	     29.51476046	     80.31030128	     89.63595157
      0.05000000	     -3.45044198	      1.19513987	     -2.41072211	      1.81348587	      0.95946625	     -0.09920930	      0.14866802	     -2.85907974	     -2.28577858	      1.67284936	      6.02435152	    -15.67792752	      0.00000000	     -0.83043694	     -3.68912339	     -6.76240411	      1.01653040	      7.39798295	     -2.89952993	      0.00000000	     -3.06294970	      1.92333462	     -1.55451214	      9.03217497	     -9.11028200	     38.63247463	     76.41229932	     92.30918100	      0.30150686	     -8.97886782	     29.69293577	     79.97489422	     89.67802126
      0.06666670	     -2.89474602	      1.36800852	     -2.33643962	      1.81302028	      0.95974179	     -0.09910771	     -0.80136146	     -3.01247583	     -1.90643587	      1.02803428	      5.88105796	    -16.34975143	      0.00000000	     -1.76357562	     -3.44252948	     -6.19710050	      0.39158552	      7.09276885	     -3.62461513	      0.00000000	     -3.67916372	      1.67633610	     -1.25514715	      9.07914655	     -9.24596094	     39.09028803	     76.83695373	     92.33000366	      1.00497209	     -9.17224971	     30.61593263	     79.64636929	     89.96561519
      0.08333330	     -2.87991034	      1.39533086	     -2.32584857	      1.81260305	      0.96143808	     -0.09927149	     -0.79043693	     -2.96975771	     -1.90257237	      1.01467931	      5.88453145	    -16.35231198	      0.00000000	     -1.76617952	     -3.41196247	     -6.19679178	      0.38991743	      7.09375021	     -3.62769099	      0.00000000	     -3.67326409	      1.67493823	     -1.25227469	      9.07831690	     -9.24004002	     39.09480755	     76.84145099	     92.33017598	      1.00760826	     -9.16764843	     30.61966915	     79.64774172	     89.96670719
      0.10000000	     -2.19066701	      1.57722886	     -2.19245138	      1.81232845	      0.96247524	     -0.09904932	     -1.95140979	     -3.12059002	     -1.26050091	      0.23417959	      5.37543311	    -17.60505623	      0.00000000	     -2.67979246	     -3.15069285	     -5.44628698	      0.00000000	      6.44205316	     -4.65999742	      0.00000000	     -4.43756871	      1.39495184	     -0.92390165	      9.36089721	     -9.67299548	     40.28871867	     78.00455672	     92.32473695	      2.13607835	     -9.36465621	     32.23453197	     79.23750695	     90.47724108
      0.11666670	     -2.18675310	      1.69295057	     -2.13045020	      1.81278563	      0.96443437	     -0.09942404	     -2.05587587	     -3.24601386	     -0.95401029	      0.04598333	      5.38551744	    -17.55293839	      0.00000000	     -2.64880235	     -3.00948294	     -5.22637486	      0.07027678	      6.27836161	     -4.58714442	      0.00000000	     -4.42496585	      1.32426849	     -0.90494799	      9.26091476	     -9.67551742	     40.35016353	     78.04594634	     92.31358201	      2.26285935	     -9.32347100	     32.26626935	     79.22578076	     90.51442256
